<svg width="44" height="36" viewBox="0 0 44 36" fill="none" xmlns="http://www.w3.org/2000/svg">
<g clip-path="url(#clip0_38_14)">
<path d="M37 11.25H16.1538C13.6685 11.25 11.6538 13.2647 11.6538 15.75V20.25C11.6538 22.7353 13.6685 24.75 16.1538 24.75H37C39.4853 24.75 41.5 22.7353 41.5 20.25V15.75C41.5 13.2647 39.4853 11.25 37 11.25Z" fill="white" stroke="#EFA7B1" stroke-width="5"/>
<path d="M4.68268 21.1172C3.01056 19.3795 3.01057 16.6205 4.68268 14.8828L4.85553 14.7129L15.6769 4.59767C18.5525 1.90965 23.2501 3.94846 23.2501 7.88478V28.1152C23.2501 32.0516 18.5525 34.0904 15.6769 31.4023L4.85553 21.2871L4.68268 21.1172Z" fill="white" stroke="#EFA7B1" stroke-width="5"/>
<path d="M31.1539 13.75H20.6924V22.25H31.1539V13.75Z" fill="white"/>
</g>
<defs>
<clipPath id="clip0_38_14">
<rect width="44" height="36" fill="white"/>
</clipPath>
</defs>
</svg>
