<svg width="328" height="131" viewBox="0 0 328 131" fill="none" xmlns="http://www.w3.org/2000/svg">
<path d="M23.6883 106.798C36.7709 119.88 65.9811 111.881 88.9312 88.931C111.881 65.9809 119.881 36.7706 106.798 23.6881C93.7154 10.6055 64.5051 18.6047 41.555 41.5548C18.6049 64.5049 10.6057 93.7152 23.6883 106.798Z" fill="#E07B88"/>
<path d="M100.688 106.798C113.771 119.88 142.981 111.881 165.931 88.931C188.881 65.9809 196.88 36.7706 183.798 23.6881C170.715 10.6055 141.505 18.6047 118.555 41.5548C95.6048 64.5049 87.6056 93.7152 100.688 106.798Z" fill="#E07B88"/>
<path d="M177.688 106.798C190.771 119.88 219.981 111.881 242.931 88.931C265.881 65.9809 273.88 36.7706 260.798 23.6881C247.715 10.6055 218.505 18.6047 195.555 41.5548C172.605 64.5049 164.606 93.7152 177.688 106.798Z" fill="#E07B88"/>
<path d="M248.548 103.515C254.785 114.318 274.962 114.346 293.614 103.578C312.266 92.8089 322.33 75.3211 316.093 64.5176C309.855 53.7141 289.678 53.686 271.026 64.4548C252.374 75.2236 242.31 92.7113 248.548 103.515Z" fill="#E07B88"/>
<path d="M67.9143 33.1948C66.0254 28.0051 68.7012 22.2666 73.891 20.3777L76.8224 19.3108C97.5816 11.7551 120.535 22.4586 128.091 43.2177L144.429 88.106C147.64 96.9286 143.091 106.684 134.269 109.895L123.82 113.698C110.845 118.42 96.4991 111.731 91.7768 98.7564L67.9143 33.1948Z" fill="#E07B88"/>
<path d="M144.914 33.1948C143.025 28.0051 145.701 22.2666 150.891 20.3777L153.822 19.3108C174.582 11.7551 197.535 22.4586 205.091 43.2177L221.429 88.106C224.64 96.9286 220.091 106.684 211.269 109.895L200.82 113.698C187.845 118.42 173.499 111.731 168.777 98.7564L144.914 33.1948Z" fill="#E07B88"/>
<path d="M221.914 33.1948C220.025 28.0051 222.701 22.2666 227.891 20.3777L230.822 19.3108C251.582 11.7551 274.535 22.4586 282.091 43.2177L296.599 83.0794C299.811 91.902 295.262 101.657 286.439 104.868L271.292 110.382C260.912 114.16 249.435 108.808 245.657 98.4282L221.914 33.1948Z" fill="#E07B88"/>
</svg>
